<svg width="54" height="54" viewBox="0 0 54 54" fill="none" xmlns="http://www.w3.org/2000/svg">
<circle cx="27" cy="27" r="27" fill="#4946FC"/>
<path d="M17.5568 18.7028C16.725 19.5379 16.25 20.7066 16.25 21.976C16.25 25.4581 18.6612 29.6536 22.0038 32.9962C25.3464 36.3388 29.5419 38.75 33.024 38.75C34.2925 38.75 35.4615 38.2756 36.3211 37.4184L37.2933 36.3L37.4595 36.1089C37.8828 35.5296 37.8336 34.7431 37.3394 34.238L34.907 32.3745L34.8946 32.365L34.8836 32.3541C34.2441 31.7242 33.3374 31.7691 32.7968 32.3098L32.79 32.3163L32.7872 32.3189L32.7843 32.3214L32.7812 32.3241L32.7753 32.3292L32.7565 32.3452L32.6889 32.4022L32.4516 32.6021L31.7367 33.2036L31.0236 33.8032L30.7889 34.0005L30.7231 34.0558L30.7058 34.0704L30.7014 34.0741L30.7007 34.0747L30.7003 34.075L30.7 34.0753L30.6999 34.0753L30.539 33.884L17.5568 18.7028ZM17.5568 18.7028L18.7263 17.6835L18.7327 17.6778L18.7388 17.6718C19.0249 17.3856 19.403 17.245 19.777 17.245C20.1314 17.245 20.4729 17.3716 20.7225 17.6133L22.671 20.1426L22.6808 20.1554L22.6922 20.1668C23.2506 20.7252 23.2567 21.6402 22.6628 22.2366L22.6554 22.2441L22.6486 22.2522L20.9266 24.3012L20.9264 24.3014C20.7484 24.5138 20.7015 24.8063 20.805 25.0632L17.5568 18.7028ZM21.857 16.6364L21.8472 16.6237L21.8359 16.6123C20.7246 15.5 18.7736 15.5212 17.7093 16.5832L16.5398 17.6015L16.5334 17.607L16.5274 17.6131C15.3797 18.7586 14.75 20.31 14.75 21.976C14.75 25.9466 17.3715 30.5128 20.9292 34.0706C24.4869 37.6285 29.0529 40.25 33.023 40.25C34.6917 40.25 36.243 39.6198 37.4112 38.4464L37.4171 38.4404L37.4227 38.434L38.3951 37.3155C39.5381 36.1657 39.5307 34.3046 38.3393 33.1197L38.3278 33.1083L38.315 33.0985L35.8818 31.2353C34.7751 30.1412 32.8744 30.1368 31.7599 31.2227L30.0776 32.6375C26.5366 31.1731 23.9471 28.5832 22.3671 24.9162L23.7596 23.2569C24.8914 22.1167 24.8989 20.2663 23.8062 19.1667L21.857 16.6364ZM32.9702 26.0308L32.9711 26.0317C33.1174 26.1764 33.3092 26.25 33.501 26.25C33.6916 26.25 33.8844 26.1782 34.0318 26.0308C34.3244 25.7381 34.3244 25.2629 34.0318 24.9702L32.251 23.1894V20.5C32.251 20.0859 31.9151 19.75 31.501 19.75C31.0869 19.75 30.751 20.0859 30.751 20.5V23.5C30.751 23.6985 30.8288 23.8893 30.9702 24.0308L32.9702 26.0308ZM25.4117 18.7052L25.358 18.7733V18.7838C25.1654 19.1028 25.2357 19.5225 25.5363 19.7594C25.8615 20.0157 26.3328 19.9603 26.5894 19.6347C27.784 18.1188 29.5727 17.251 31.5 17.251C34.9459 17.251 37.75 20.0551 37.75 23.501C37.75 25.4274 36.8821 27.217 35.3663 28.4116C35.0407 28.6682 34.9853 29.1395 35.2416 29.4647L35.242 29.4652C35.3906 29.6528 35.6111 29.75 35.831 29.75C35.994 29.75 36.1576 29.6974 36.2951 29.5899L36.2959 29.5892C38.1728 28.108 39.251 25.8888 39.251 23.5C39.251 19.2259 35.7751 15.75 31.501 15.75C29.1113 15.75 26.892 16.8282 25.4117 18.7052Z" fill="white" stroke="white" stroke-width="0.5"/>
</svg>
