<svg width="54" height="54" viewBox="0 0 54 54" fill="none" xmlns="http://www.w3.org/2000/svg">
<circle cx="27" cy="27" r="27" fill="#4946FC"/>
<path d="M26 28.5C26 27.67 26.67 27 27.5 27C28.33 27 29 27.67 29 28.5C29 29.33 28.33 30 27.5 30C26.67 30 26 29.33 26 28.5ZM27.5 32C26.67 32 26 32.67 26 33.5C26 34.33 26.67 35 27.5 35C28.33 35 29 34.33 29 33.5C29 32.67 28.33 32 27.5 32ZM32.5 30C33.33 30 34 29.33 34 28.5C34 27.67 33.33 27 32.5 27C31.67 27 31 27.67 31 28.5C31 29.33 31.67 30 32.5 30ZM32.5 35C33.33 35 34 34.33 34 33.5C34 32.67 33.33 32 32.5 32C31.67 32 31 32.67 31 33.5C31 34.33 31.67 35 32.5 35ZM39 21.24V34C39 36.76 36.76 39 34 39H19C16.79 39 15 37.21 15 35V23C15 20.79 16.79 19 19 19C21.21 19 23 20.79 23 23H25V19C25 16.79 26.79 15 29 15H32.76C33.83 15 34.83 15.42 35.59 16.17L37.83 18.41C38.57 19.15 39 20.18 39 21.24ZM21 23C21 21.9 20.1 21 19 21C17.9 21 17 21.9 17 23V35C17 36.1 17.9 37 19 37C20.1 37 21 36.1 21 35V23ZM27 23H37V21.24C37 21.16 37 21.08 36.98 21H35C33.9 21 33 20.1 33 19V17.02C32.92 17.02 32.84 17 32.76 17H29C27.9 17 27 17.9 27 19V23ZM37 25H23V35C23 35.73 22.8 36.41 22.46 37H34C35.65 37 37 35.65 37 34V25Z" fill="white"/>
</svg>
