<svg width="550" height="64" viewBox="0 0 550 64" fill="none" xmlns="http://www.w3.org/2000/svg">
<path d="M19.5478 0H550L529.452 64H0L19.5478 0Z" fill="url(#paint0_linear_189_13)"/>
<path d="M0.67552 63.5L19.9179 0.5H549.314L529.088 63.5H0.67552Z" stroke="white" stroke-opacity="0.35"/>
<path d="M188.712 36.128L190.552 33.76C191.928 35.104 193.96 35.584 195.592 35.584C197.128 35.584 198.2 35.248 198.2 34.592C198.2 33.808 197.272 33.744 194.408 33.424C191.816 33.152 189.496 32.544 189.496 30.176C189.496 27.744 191.816 26.32 195.24 26.32C197.848 26.32 200.168 27.12 201.352 28.208L199.512 30.4C198.552 29.488 196.84 28.896 195 28.896C193.512 28.896 192.664 29.248 192.664 29.856C192.664 30.464 193.496 30.592 196.2 30.88C198.856 31.184 201.544 31.696 201.544 34.256C201.544 36.928 198.984 38.192 195.4 38.192C192.904 38.192 189.944 37.392 188.712 36.128ZM202.503 26.512H213.671V29.168H205.575V30.88H212.759V33.472H205.575V35.344H213.671V38H202.503V26.512ZM227.358 26.512V38H224.59L217.918 30.544V38H214.862V26.512H217.998L224.302 33.584V26.512H227.358ZM228.925 38V26.512H234.973C239.165 26.512 241.725 28.752 241.725 32.256C241.725 35.76 239.165 38 234.973 38H228.925ZM231.997 35.36H234.973C237.293 35.36 238.605 34.128 238.605 32.256C238.605 30.368 237.293 29.152 234.957 29.152H231.997V35.36ZM252.113 26.512H255.713L261.345 38H257.905L256.865 35.84H250.833L249.793 38H246.465L252.113 26.512ZM253.873 29.584L252.065 33.328H255.665L253.873 29.584ZM275.653 38H273.125L269.637 29.744V38H266.581V26.512H271.253L274.421 34.16L277.589 26.512H282.197V38H279.157V29.744L275.653 38ZM283.768 26.512H294.936V29.168H286.84V30.88H294.024V33.472H286.84V35.344H294.936V38H283.768V26.512ZM295.259 36.128L297.099 33.76C298.475 35.104 300.507 35.584 302.139 35.584C303.675 35.584 304.747 35.248 304.747 34.592C304.747 33.808 303.819 33.744 300.955 33.424C298.363 33.152 296.043 32.544 296.043 30.176C296.043 27.744 298.363 26.32 301.787 26.32C304.395 26.32 306.715 27.12 307.899 28.208L306.059 30.4C305.099 29.488 303.387 28.896 301.547 28.896C300.059 28.896 299.211 29.248 299.211 29.856C299.211 30.464 300.043 30.592 302.747 30.88C305.403 31.184 308.091 31.696 308.091 34.256C308.091 36.928 305.531 38.192 301.947 38.192C299.451 38.192 296.491 37.392 295.259 36.128ZM308.071 36.128L309.911 33.76C311.287 35.104 313.319 35.584 314.951 35.584C316.487 35.584 317.559 35.248 317.559 34.592C317.559 33.808 316.631 33.744 313.767 33.424C311.175 33.152 308.855 32.544 308.855 30.176C308.855 27.744 311.175 26.32 314.599 26.32C317.207 26.32 319.527 27.12 320.711 28.208L318.871 30.4C317.911 29.488 316.199 28.896 314.359 28.896C312.871 28.896 312.023 29.248 312.023 29.856C312.023 30.464 312.855 30.592 315.559 30.88C318.215 31.184 320.903 31.696 320.903 34.256C320.903 36.928 318.343 38.192 314.759 38.192C312.263 38.192 309.303 37.392 308.071 36.128ZM326.113 26.512H329.713L335.345 38H331.905L330.865 35.84H324.833L323.793 38H320.465L326.113 26.512ZM327.873 29.584L326.065 33.328H329.665L327.873 29.584ZM341.454 26.32C344.574 26.32 346.878 27.728 347.758 29.952L344.734 31.056C344.286 29.872 343.182 29.024 341.342 29.024C339.278 29.024 337.582 30.272 337.582 32.304C337.582 34.272 339.214 35.52 341.326 35.52C343.054 35.52 344.462 34.864 344.798 33.936H340.414V31.488H347.95V38H345.038V37.008C344.43 37.664 342.958 38.192 341.31 38.192C337.246 38.192 334.366 35.68 334.366 32.24C334.366 28.816 337.262 26.32 341.454 26.32ZM349.315 26.512H360.483V29.168H352.387V30.88H359.571V33.472H352.387V35.344H360.483V38H349.315V26.512Z" fill="white"/>
<defs>
<linearGradient id="paint0_linear_189_13" x1="275" y1="0" x2="275" y2="64" gradientUnits="userSpaceOnUse">
<stop stop-color="#4946FC"/>
<stop offset="1" stop-color="#2D28C0"/>
</linearGradient>
</defs>
</svg>
