<svg width="52" height="36" viewBox="0 0 52 36" fill="none" xmlns="http://www.w3.org/2000/svg">
<path fill-rule="evenodd" clip-rule="evenodd" d="M50.0284 5.62065C49.7383 4.53433 49.1685 3.54302 48.3759 2.74552C47.5833 1.94801 46.5955 1.37216 45.511 1.07535C41.5277 -4.1531e-07 25.5484 0 25.5484 0C25.5484 0 9.56903 -4.1531e-07 5.58581 1.07535C4.5013 1.37216 3.51351 1.94801 2.7209 2.74552C1.92828 3.54302 1.35852 4.53433 1.06839 5.62065C6.92183e-08 9.63406 0 18 0 18C0 18 6.92183e-08 26.3659 1.06839 30.3794C1.35816 31.4661 1.92777 32.4579 2.72041 33.2558C3.51305 34.0538 4.50102 34.63 5.58581 34.927C9.57135 36 25.5484 36 25.5484 36C25.5484 36 41.5277 36 45.511 34.927C46.5958 34.63 47.5837 34.0538 48.3764 33.2558C49.169 32.4579 49.7386 31.4661 50.0284 30.3794C51.0968 26.3706 51.0968 18 51.0968 18C51.0968 18 51.0968 9.63406 50.0284 5.62065ZM20.3226 10.4028V25.5972L33.6774 18L20.3226 10.4028Z" fill="#FF0000"/>
</svg>
